<svg width="30" height="30" viewBox="0 0 30 30" fill="none" xmlns="http://www.w3.org/2000/svg">
<path d="M24.5161 9.0986C24.2058 8.29655 23.7584 7.56975 23.1988 6.95886C22.6389 6.34616 21.9787 5.85925 21.2542 5.52462C20.5029 5.17624 19.6971 4.99793 18.8835 5.00002C17.7422 5.00002 16.6286 5.34889 15.6609 6.00787C15.4294 6.1655 15.2095 6.33865 15.0011 6.5273C14.7928 6.33865 14.5729 6.1655 14.3413 6.00787C13.3736 5.34889 12.2601 5.00002 11.1188 5.00002C10.2969 5.00002 9.50052 5.17575 8.74811 5.52462C8.02118 5.86057 7.36601 6.34382 6.80345 6.95886C6.24319 7.56906 5.79564 8.29604 5.48617 9.0986C5.16437 9.93331 5 10.8197 5 11.7319C5 12.5925 5.15743 13.4892 5.46996 14.4014C5.73157 15.1638 6.10661 15.9546 6.58583 16.7531C7.34518 18.0168 8.38928 19.3347 9.68572 20.6708C11.8341 22.8855 13.9617 24.4153 14.052 24.4773L14.6006 24.8701C14.8437 25.0433 15.1563 25.0433 15.3993 24.8701L15.948 24.4773C16.0383 24.4127 18.1635 22.8855 20.3143 20.6708C21.6107 19.3347 22.6548 18.0168 23.4141 16.7531C23.8934 15.9546 24.2707 15.1638 24.53 14.4014C24.8425 13.4892 25 12.5925 25 11.7319C25.0023 10.8197 24.8379 9.93331 24.5161 9.0986V9.0986Z" fill="#FF00FF"/>
</svg>
