<svg width="30" height="30" viewBox="0 0 30 30" fill="none" xmlns="http://www.w3.org/2000/svg">
<path d="M26.4286 15.7144H22.1428M9.2857 5.71436C9.66458 5.71436 10.0279 5.86487 10.2958 6.13277C10.5638 6.40068 10.7143 6.76405 10.7143 7.14293V10.0001C10.7143 10.379 10.5638 10.7423 10.2958 11.0102C10.0279 11.2781 9.66458 11.4286 9.2857 11.4286C8.90682 11.4286 8.54345 11.2781 8.27554 11.0102C8.00764 10.7423 7.85713 10.379 7.85713 10.0001V7.14293C7.85713 6.76405 8.00764 6.40068 8.27554 6.13277C8.54345 5.86487 8.90682 5.71436 9.2857 5.71436V5.71436ZM26.4286 8.5715H10.7143H26.4286ZM7.85713 8.5715H3.57141H7.85713ZM9.2857 20.0001C9.66458 20.0001 10.0279 20.1506 10.2958 20.4185C10.5638 20.6864 10.7143 21.0498 10.7143 21.4286V24.2858C10.7143 24.6647 10.5638 25.028 10.2958 25.2959C10.0279 25.5638 9.66458 25.7144 9.2857 25.7144C8.90682 25.7144 8.54345 25.5638 8.27554 25.2959C8.00764 25.028 7.85713 24.6647 7.85713 24.2858V21.4286C7.85713 21.0498 8.00764 20.6864 8.27554 20.4185C8.54345 20.1506 8.90682 20.0001 9.2857 20.0001ZM26.4286 22.8572H10.7143H26.4286ZM7.85713 22.8572H3.57141H7.85713ZM20.7143 12.8572C21.0931 12.8572 21.4565 13.0077 21.7244 13.2756C21.9923 13.5435 22.1428 13.9069 22.1428 14.2858V17.1429C22.1428 17.5218 21.9923 17.8852 21.7244 18.1531C21.4565 18.421 21.0931 18.5715 20.7143 18.5715C20.3354 18.5715 19.972 18.421 19.7041 18.1531C19.4362 17.8852 19.2857 17.5218 19.2857 17.1429V14.2858C19.2857 13.9069 19.4362 13.5435 19.7041 13.2756C19.972 13.0077 20.3354 12.8572 20.7143 12.8572V12.8572ZM19.2857 15.7144H3.57141H19.2857Z" stroke="#800080" stroke-width="1.42857" stroke-linecap="round" stroke-linejoin="round"/>
</svg>
