<svg width="30" height="30" viewBox="0 0 30 30" fill="none" xmlns="http://www.w3.org/2000/svg">
<path d="M18.1817 15L24.341 8.84069C25.2197 7.96207 25.2197 6.53758 24.341 5.65896C23.4624 4.78035 22.038 4.78035 21.1593 5.65896L15 11.8183L8.84069 5.65896C7.96207 4.78035 6.53758 4.78035 5.65896 5.65896C4.78035 6.53758 4.78035 7.96207 5.65896 8.84069L11.8183 15L5.65896 21.1593C4.78035 22.0379 4.78035 23.4624 5.65896 24.341C6.09827 24.7803 6.67404 25 7.2498 25C7.82557 25 8.40138 24.7803 8.84064 24.341L15 18.1817L21.1593 24.341C21.5986 24.7803 22.1744 25 22.7502 25C23.3259 25 23.9017 24.7803 24.341 24.341C25.2196 23.4624 25.2196 22.0379 24.341 21.1593L18.1817 15Z" fill="#D92121"/>
</svg>
