<svg width="30" height="30" viewBox="0 0 30 30" fill="none" xmlns="http://www.w3.org/2000/svg">
<path d="M19.0604 15.0001L26.9206 7.13983C28.0419 6.01858 28.0419 4.20071 26.9206 3.07946C25.7993 1.95821 23.9816 1.95821 22.8602 3.07946L15 10.9397L7.13977 3.07946C6.01852 1.95821 4.20065 1.95821 3.0794 3.07946C1.95815 4.20071 1.95815 6.01858 3.0794 7.13983L10.9396 15.0001L3.0794 22.8603C1.95815 23.9816 1.95815 25.7994 3.0794 26.9207C3.64003 27.4812 4.37479 27.7616 5.10956 27.7616C5.84432 27.7616 6.57915 27.4813 7.13971 26.9207L15 19.0604L22.8602 26.9207C23.4209 27.4812 24.1556 27.7616 24.8904 27.7616C25.6252 27.7616 26.3599 27.4813 26.9206 26.9207C28.0418 25.7994 28.0418 23.9816 26.9206 22.8603L19.0604 15.0001Z" fill="#D92121"/>
</svg>
